<?xml version="1.0" encoding="UTF-8" standalone="no"?>
<svg width="279px" height="272px" viewBox="0 0 279 272" version="1.1" xmlns="http://www.w3.org/2000/svg" xmlns:xlink="http://www.w3.org/1999/xlink">
    <title>moment - FOSSA Component Report</title>
    <desc>FOSSA component report plugin for moment. View more at http://fossa.io.</desc>
    <defs>
        <style>
            @font-face {
              font-family: 'Open Sans';
              font-style: normal;
              font-weight: 400;
              src: local('Open Sans'), local('OpenSans'), url(https://s3-us-west-1.amazonaws.com/fossa-site/fonts/OpenSans-Regular.ttf);
            }
            @font-face {
              font-family: 'OpenSans-Semibold';
              font-style: normal;
              font-weight: 600;
              src: local('Open Sans Semibold'), local('OpenSans-Semibold'), url(https://s3-us-west-1.amazonaws.com/fossa-site/fonts/OpenSans-Semibold.ttf);
            }
            @font-face {
              font-family: 'OpenSans-Bold';
              font-style: normal;
              font-weight: 700;
              src: local('Open Sans Bold'), local('OpenSans-Bold'), url(https://s3-us-west-1.amazonaws.com/fossa-site/fonts/OpenSans-Bold.ttf);
            }
            @font-face {
                font-family: 'HalisR-Bold';
                src: url('https://s3-us-west-1.amazonaws.com/fossa-site/fonts/30B72B_0_0.eot');
                src: url('https://s3-us-west-1.amazonaws.com/fossa-site/fonts/30B72B_0_0.eot?#iefix') format('embedded-opentype'), url('https://s3-us-west-1.amazonaws.com/fossa-site/fonts/30B72B_0_0.woff2') format('woff2'), url('https://s3-us-west-1.amazonaws.com/fossa-site/fonts/30B72B_0_0.woff') format('woff'), url('https://s3-us-west-1.amazonaws.com/fossa-site/fonts/30B72B_0_0.ttf') format('truetype');
            }
        </style>
        <rect id="path-1" x="0" y="0" width="275" height="268" rx="3"></rect>
        <filter x="-50%" y="-50%" width="200%" height="200%" filterUnits="objectBoundingBox" id="filter-3">
            <feOffset dx="0" dy="1" in="SourceAlpha" result="shadowOffsetOuter1"></feOffset>
            <feGaussianBlur stdDeviation="1" in="shadowOffsetOuter1" result="shadowBlurOuter1"></feGaussianBlur>
            <feComposite in="shadowBlurOuter1" in2="SourceAlpha" operator="out" result="shadowBlurOuter1"></feComposite>
            <feColorMatrix values="0 0 0 0 0.333333333   0 0 0 0 0.407843137   0 0 0 0 0.509803922  0 0 0 0.15 0" type="matrix" in="shadowBlurOuter1"></feColorMatrix>
        </filter>
        <mask id="mask-4" maskContentUnits="userSpaceOnUse" maskUnits="objectBoundingBox" x="0" y="0" width="275" height="357" fill="white">
            <use xlink:href="#path-1"></use>
        </mask>
    </defs>
    <g id="Landing" stroke="none" stroke-width="1" fill="none" fill-rule="evenodd">
        <g id="Artboard-11" transform="translate(-15.000000, -11.000000)">
            <g id="Licenses-+-Group-3-+-Group-+-Group-2-+-Group-3-+-Group-5-+-Rectangle-143-+-View-More-Details-on-Mask" transform="translate(17.000000, 12.000000)">
                <mask id="mask-2" fill="white">
                    <use xlink:href="#path-1"></use>
                </mask>
                <g id="Mask">
                    <use fill="black" fill-opacity="1" filter="url(#filter-3)" xlink:href="#path-1"></use>
                    <use stroke-opacity="0.1" stroke="#556882" mask="url(#mask-4)" stroke-width="2" fill="#FFFFFF" fill-rule="evenodd" xlink:href="#path-1"></use>
                </g>
                <text id="Licenses" mask="url(#mask-2)" font-family="OpenSans, Open Sans, sans-serif" font-size="14" font-weight="normal" line-spacing="21" fill="#556882">
                    <tspan x="15" y="26">moment d0a45f0390</tspan>
                </text>
                <g id="Group-3" mask="url(#mask-2)" fill-opacity="0.4">
                    <g transform="translate(205.000000, 15.000000)">
                        <text id="FOSSA" font-family="HalisR-Bold, Halis R, sans-serif" font-size="12" font-weight="bold" letter-spacing="-0.5">
                            <tspan x="15" y="12" fill="#556882">FOSSA</tspan>
                        </text>
                        <g id="Fossa-Flat" stroke-width="1" fill-rule="evenodd" transform="translate(0.000000, 1.000000)">
                            <path d="M1.13856878,7.10449042 C1.13856878,7.10449042 1.12040801,7.05364029 1.17125815,7.01368661 C1.23663689,6.96646862 1.3201764,6.91925064 1.36739439,6.97373293 L1.37102654,6.97736508 L1.37102654,6.97736508 L1.37465869,6.98099724 L1.37465869,6.98099724 L1.37465869,6.98099724 C1.41098022,7.02095091 1.45456605,7.03547952 1.49815188,7.03547952 C1.59258785,7.03547952 1.69065597,6.97010078 1.7342418,6.94104356 C1.83957422,6.86840051 1.91221727,6.80665391 1.92674588,6.61778198 L1.92674588,6.61051767 C1.92674588,6.60688552 1.92674588,6.55240323 1.97396387,6.54150677 C1.99212463,6.53787462 2.01028539,6.54877108 2.024814,6.55966754 C2.06113553,6.59235691 2.10472136,6.67226427 2.09745705,6.78849315 C2.08292844,6.95920432 1.99938893,7.11175473 1.85047068,7.24251222 C1.83957422,7.25340868 1.82867776,7.26067298 1.81778131,7.27156944 C1.72697749,7.34421249 1.63980583,7.40959124 1.55989847,7.46407353 C1.44730174,7.52582012 1.34560147,7.43138415 1.29475134,7.36963756 C1.27295842,7.34058034 1.25479766,7.31515527 1.22574044,7.27156944 L1.21847613,7.25704083 C1.18941891,7.20619069 1.16036169,7.15534056 1.13856878,7.10449042 L1.13856878,7.10449042 L1.13856878,7.10449042 L1.13856878,7.10449042 Z M0.775353519,8.20503265 C0.786249976,8.21229696 0.797146434,8.21956126 0.808042892,8.22682557 C0.822571502,8.23772202 0.837100112,8.24498633 0.855260875,8.25225063 C0.895214553,8.2704114 0.935168232,8.26314709 1.00417913,8.24498633 C1.02233989,8.24135418 1.04050066,8.23772202 1.05866142,8.23408987 C0.971489757,8.15418251 0.906111011,8.05974655 0.858893028,7.95441412 C0.855260875,8.03795363 0.83346796,8.12512529 0.775353519,8.20503265 L0.775353519,8.20503265 L0.775353519,8.20503265 Z M1.80688485,1.77249045 C1.80688485,1.7688583 1.8032527,1.7688583 1.80688485,1.77249045 C1.76329902,1.71800816 1.72697749,1.66352588 1.69792027,1.60904359 C1.70881673,1.70711171 1.72697749,1.80517983 1.74513825,1.89235149 C1.75240256,1.92504086 1.75603471,1.95409808 1.76329902,1.9831553 C1.79598839,1.94683378 1.82867776,1.9141444 1.85773498,1.88145503 C1.83957422,1.80881198 1.80688485,1.77249045 1.80688485,1.77249045 L1.80688485,1.77249045 L1.80688485,1.77249045 Z M0.234162786,7.38779832 C0.237794939,7.38053402 0.237794939,7.36963756 0.237794939,7.35510895 L0.237794939,7.34421249 C0.234162786,7.30425881 0.237794939,7.26430514 0.241427091,7.21708715 C0.245059244,7.15897271 0.255955702,7.10449042 0.270484312,7.04637598 L0.270484312,7.04637598 C0.270484312,7.04274383 0.270484312,7.03911168 0.274116464,7.03547952 C0.277748617,7.02458307 0.28138077,6.999158 0.277748617,6.99189369 L0.277748617,6.99189369 C0.234162786,6.95920432 0.18331265,6.9301471 0.146991125,6.91198634 C0.15425543,6.99552585 0.150623277,7.08632966 0.146991125,7.1371798 L0.146991125,7.15170841 L0.146991125,7.15897271 L0.146991125,7.16260486 C0.143358972,7.21708715 0.139726819,7.27883375 0.223266328,7.36963756 C0.223266328,7.37690187 0.230530634,7.38053402 0.234162786,7.38779832 L0.234162786,7.38779832 L0.234162786,7.38779832 Z M8.31570225,3.62125611 C8.35928808,3.62125611 8.40287391,3.61762396 8.44645974,3.61035965 C8.51547064,3.58856674 8.56268862,3.57767028 8.56995293,3.57403813 C8.95132895,3.4614414 9.26732622,3.21808718 9.41261232,2.92388282 C9.5143126,2.65873568 9.50341614,2.45533514 9.49251968,2.31004903 C9.48888753,2.27735966 9.48888753,2.24467029 9.48888753,2.21198091 C9.48525538,1.95773023 9.80125265,1.51460762 9.8666314,1.42380381 C10.095457,1.04605994 10.1717322,0.722798361 10.095457,0.490340597 C10.0264461,0.2833079 9.85573494,0.214297001 9.85210279,0.210664849 L9.85210279,0.210664849 L9.84847063,0.210664849 C9.78309189,0.181607628 9.71771314,0.15618256 9.64870224,0.138021798 C9.53973766,0.108964577 9.42350878,0.0944359668 9.30364775,0.0944359668 C8.82783576,0.0944359668 8.30843794,0.337790189 7.91979762,0.748223429 C7.91979762,0.751855582 7.91616547,0.755487734 7.91253331,0.759119887 C7.77087936,0.944359668 7.54568591,1.32210353 7.64375402,1.7688583 C7.71276492,2.07395912 7.87984394,2.31368119 8.15588754,2.50618527 C8.19220906,2.53161034 8.21036982,2.57156402 8.20310552,2.61514985 C8.19584121,2.65873568 8.17041615,2.69142505 8.13046247,2.70595366 C8.12683032,2.70595366 7.78177582,2.83671116 7.70913277,3.05827246 C7.68007555,3.14544412 7.69823631,3.23988009 7.76724721,3.34521251 C7.77814367,3.34884467 7.97791206,3.62125611 8.31570225,3.62125611 L8.31570225,3.62125611 L8.31570225,3.62125611 L8.31570225,3.62125611 Z M0.742664146,6.25456672 C0.793514282,6.25456672 0.86252518,6.2255095 0.97512191,6.1564986 C1.13130447,6.06206264 1.28748703,6.00031604 1.44366959,5.97489097 L1.4509339,5.97489097 C1.50178403,5.96399452 1.53810556,5.92040869 1.53810556,5.8659264 L1.53810556,5.86229424 L1.53810556,5.85502994 C1.53447341,5.81507626 1.50904834,5.77875474 1.46909466,5.76422613 C1.46546251,5.76422613 1.46183035,5.76059397 1.4581982,5.76059397 C1.41824452,5.74606536 1.37465869,5.73880106 1.32744071,5.73880106 L1.32380856,5.73880106 C1.26206196,5.73880106 1.22574044,5.74969751 1.18578676,5.76422613 C1.15309739,5.77512258 1.12404017,5.78238689 1.08771864,5.78238689 L1.06592572,5.78238689 C1.03323635,5.77875474 1.00054698,5.76785828 0.978754063,5.75696182 C0.953328995,5.74606536 0.931536079,5.73880106 0.906111011,5.73880106 C0.895214553,5.73880106 0.887950248,5.73880106 0.877053791,5.74243321 C0.808042892,5.75696182 0.735399841,5.81870841 0.709974773,5.84413348 C0.709974773,5.84413348 0.70634262,5.84776563 0.702710467,5.84776563 L0.699078315,5.84776563 C0.655492484,5.88408716 0.608274501,5.92404084 0.561056517,5.96036236 L0.539263602,5.98215528 C0.539263602,5.98215528 0.535631449,5.98578743 0.535631449,5.98941958 L0.528367144,6.00031604 C0.521102839,6.01484465 0.517470686,6.03300542 0.517470686,6.04753403 C0.517470686,6.07659125 0.528367144,6.10564847 0.55016006,6.12744138 C0.553792212,6.13107353 0.557424365,6.13470569 0.561056517,6.13833784 L0.561056517,6.13833784 C0.56468867,6.14196999 0.568320822,6.14560214 0.571952975,6.1492343 C0.651860331,6.22187735 0.688181857,6.25456672 0.742664146,6.25456672 L0.742664146,6.25456672 L0.742664146,6.25456672 L0.742664146,6.25456672 Z M6.08919273,12.8469236 C6.09282488,12.8469236 6.09645703,12.8432915 6.10008918,12.8432915 C6.64491207,12.6253623 7.1788385,12.3493187 7.68733986,12.0187928 L7.70913277,12.0042642 C7.73818999,11.9824713 7.75998291,11.9497819 7.75998291,11.9134604 L7.75998291,11.9134604 L7.75998291,11.9098283 L7.75998291,11.902564 C7.75998291,11.8952997 7.75998291,11.8916675 7.75635075,11.8844032 C7.75635075,11.880771 7.7527186,11.8771389 7.7527186,11.8735067 L7.74908645,11.8662424 C7.63285757,11.5429809 7.4694107,10.8383433 7.6764434,9.77412256 C7.73092569,9.50171112 7.75998291,9.24019613 7.76361506,8.99684191 L7.76361506,8.99320976 L7.76361506,8.9823133 L7.76361506,8.97868115 L7.76361506,8.97141684 C7.75635075,8.9133024 7.70913277,8.86971657 7.65465048,8.86971657 C7.61832896,8.86971657 7.58563958,8.88787733 7.56747882,8.9133024 L7.56384667,8.92056671 L7.56384667,8.92419886 L7.55658236,8.93146316 C7.49846792,9.04042774 7.42582487,9.15302447 7.34228536,9.27288551 C6.4742009,10.5187138 5.82041344,11.5647738 5.94390662,12.7561198 C5.95117093,12.8142343 5.99838891,12.8541879 6.0528712,12.8541879 C6.06376766,12.8541879 6.07829627,12.8505558 6.08919273,12.8469236 L6.08919273,12.8469236 L6.08919273,12.8469236 Z M4.46925268,13.2973106 L4.48741344,13.2936784 C4.69081399,13.2646212 5.10487938,13.188346 5.63517365,13.0140027 L5.63517365,13.0140027 L5.64243796,13.0103705 L5.64607011,13.0103705 C5.64970226,13.0103705 5.65333442,13.0067383 5.65696657,13.0067383 L5.65696657,13.0067383 C5.69692025,12.9885776 5.72234532,12.9486239 5.72234532,12.9050381 L5.72234532,12.9050381 L5.72234532,12.8977738 L5.71871316,12.8832452 C5.54073769,11.5756702 6.23084668,10.4642315 7.14614912,9.14939232 C7.73092569,8.31036508 7.57474313,7.90356399 7.40403195,7.67110622 C7.23695294,7.47133783 7.02265594,7.37326971 6.76114095,7.37326971 C6.64127992,7.37326971 6.51052242,7.39506263 6.37250063,7.43864846 C6.25263959,7.47860214 6.1291464,7.51492366 6.00202106,7.54761304 C5.87489572,7.57667026 5.74050608,7.60209532 5.60248428,7.62388824 C5.51168047,7.63841685 5.42087665,7.64931331 5.33370499,7.66020977 C4.88331807,7.71832421 4.45472407,7.7728065 3.95348702,8.03432148 L3.94622271,8.04158579 L3.93895841,8.04158579 C3.89900473,8.05974655 3.8626832,8.08153946 3.82272952,8.09970023 L3.82272952,8.09970023 L3.81909737,8.09970023 C3.81546522,8.10333238 3.80820091,8.10333238 3.80456876,8.10696453 L3.80093661,8.10696453 C3.79004015,8.11422884 3.78277584,8.12149314 3.77551154,8.1323896 C3.77551154,8.1323896 3.77187939,8.13602175 3.77187939,8.1396539 L3.77187939,8.14328606 L3.76461508,8.15055036 C3.75735078,8.16507897 3.75371862,8.18323974 3.75371862,8.19776835 C3.75371862,8.23045772 3.76824723,8.26314709 3.7936723,8.28494001 L3.81909737,8.28494001 L3.81909737,8.30310077 C4.15688756,8.51376562 4.40024178,9.03316344 4.43656331,9.6252043 C4.48378129,10.3843242 4.41477039,11.0853296 4.3530238,11.6991634 L4.3530238,11.7064277 C4.28764505,12.3456866 4.23679492,12.8469236 4.33486304,13.2065067 L4.33486304,13.2101389 L4.33486304,13.213771 C4.33486304,13.2210353 4.33849519,13.2319318 4.34212734,13.2391961 C4.3602881,13.2791498 4.40024178,13.3045749 4.44382761,13.3045749 C4.46198838,13.2973106 4.46562053,13.2973106 4.46925268,13.2973106 L4.46925268,13.2973106 L4.46925268,13.2973106 Z M1.40371591,2.34273841 C1.40734807,2.33910625 1.40734807,2.33910625 1.41098022,2.3354741 L1.41098022,2.3354741 L1.41098022,2.33184195 C1.46183035,2.27009535 1.50904834,2.21198091 1.55626632,2.16113078 C1.55989847,2.15749863 1.55989847,2.15749863 1.56353063,2.15386647 C1.57805924,2.13570571 1.58895569,2.11028064 1.58895569,2.08485557 L1.58895569,2.08122342 L1.58895569,2.07395912 L1.58895569,2.06306266 C1.58169139,2.01947683 1.57442708,1.97225884 1.56353063,1.93230517 C1.51631264,1.69621525 1.46183035,1.40564304 1.56353063,1.16592097 C1.56353063,1.03879563 1.58532354,0.908038142 1.59985215,0.79180926 L1.59985215,0.784544955 C1.61074861,0.715534056 1.62164507,0.646523157 1.62890937,0.577512258 C1.65070229,0.359583104 1.61074861,0.177975476 1.5199448,0.0799073565 C1.46909466,0.025425068 1.40734807,0 1.33107286,0 L1.3201764,0 C1.28385488,0 1.23300474,0 1.17852245,0.0508501359 C1.14220093,0.0944359668 1.11314371,0.177975476 1.09135079,0.2833079 C1.06229357,0.435858308 1.06229357,0.606569479 1.06955788,0.704637598 C1.1058794,1.07148501 1.0986151,1.11870299 1.06955788,1.19861035 C1.05502927,1.23493187 1.0368685,1.28578201 1.0296042,1.49281471 C1.02233989,1.64899727 1.08771864,1.86692642 1.15309739,2.07395912 L1.15309739,2.07759127 C1.1748903,2.14660217 1.19668322,2.21924522 1.21484398,2.29188827 L1.21484398,2.29188827 C1.21484398,2.29552042 1.21847613,2.30278473 1.21847613,2.30641688 L1.21847613,2.31004903 C1.23663689,2.35363486 1.27659057,2.38269208 1.32380856,2.38269208 C1.35286578,2.37905993 1.381923,2.36453132 1.40371591,2.34273841 L1.40371591,2.34273841 L1.40371591,2.34273841 Z M1.53810556,3.63941687 C1.53810556,3.63578472 1.54173771,3.62852042 1.54173771,3.62488826 L1.54173771,3.62488826 L1.54173771,3.62125611 C1.55989847,3.49049862 1.57442708,3.31615529 1.58532354,3.05464031 C1.58895569,2.97836511 1.59985215,2.8948256 1.61438076,2.81128609 L1.61438076,2.81128609 L1.62527722,2.7640681 C1.62527722,2.7568038 1.62890937,2.74953949 1.62890937,2.74227519 L1.62890937,2.73864304 L1.62890937,2.73137873 C1.62164507,2.67326429 1.57442708,2.62967846 1.5199448,2.62967846 C1.48725542,2.62967846 1.45456605,2.64420707 1.43640529,2.66963214 C1.43640529,2.66963214 1.43277313,2.67326429 1.43277313,2.67689644 L1.43277313,2.6805286 C1.39281946,2.73137873 1.36739439,2.7640681 1.36013008,2.77133241 L1.35649793,2.77496456 C1.3201764,2.81491824 1.28748703,2.86576838 1.25842981,2.92388282 C1.18941891,3.05827246 1.15672954,3.19266211 1.15309739,3.20355856 L1.15309739,3.20719072 C1.13856878,3.26530516 1.12404017,3.32705175 1.10951155,3.3924305 C1.10951155,3.43238418 1.12040801,3.4687057 1.14220093,3.50502723 C1.18215461,3.57767028 1.25842981,3.64304903 1.37465869,3.70842777 L1.37829085,3.71205992 C1.381923,3.71569208 1.38555515,3.71569208 1.3891873,3.71932423 C1.40371591,3.72658853 1.41824452,3.73022069 1.43640529,3.73022069 C1.47999112,3.72295638 1.5272091,3.69026701 1.53810556,3.63941687 L1.53810556,3.63941687 L1.53810556,3.63941687 Z M2.07203199,1.61994005 L2.07203199,1.61994005 L2.07929629,1.61267574 C2.18099656,1.52550408 2.29359329,1.44922887 2.42071863,1.38021798 L2.42435078,1.38021798 C2.46067231,1.36205721 2.47883307,1.32210353 2.47883307,1.28214986 L2.47883307,1.2785177 L2.47883307,1.2712534 C2.47520092,1.24946048 2.46793662,1.22766757 2.45340801,1.20950681 C2.33354697,1.06785285 2.239111,0.875348769 2.15920365,0.704637598 L2.15193934,0.690108988 C2.12651427,0.639258852 2.10108921,0.588408716 2.07929629,0.541190733 L2.07929629,0.541190733 L2.07929629,0.541190733 L2.06839983,0.519397817 C2.05023907,0.483076292 2.01028539,0.457651224 1.97033171,0.457651224 C1.93401019,0.457651224 1.90132081,0.475811986 1.88316005,0.501237054 C1.88316005,0.501237054 1.8795279,0.504869207 1.8795279,0.508501359 L1.8795279,0.512133512 L1.87226359,0.519397817 C1.86499929,0.533926427 1.86136714,0.544822885 1.86136714,0.559351495 L1.85773498,0.595673021 C1.85047068,0.671948225 1.83957422,0.744591276 1.82867776,0.813602175 C1.810517,0.940727515 1.79235624,1.06058855 1.79235624,1.17681743 C1.79598839,1.33299999 1.83230992,1.46012533 1.91221727,1.57998637 L1.91221727,1.58361852 C1.91221727,1.58725067 1.91584943,1.58725067 1.91948158,1.59088282 C1.94127449,1.61994005 1.97396387,1.63446866 2.01028539,1.63446866 C2.02844615,1.64536511 2.05387122,1.63446866 2.07203199,1.61994005 L2.07203199,1.61994005 L2.07203199,1.61994005 Z M2.10472136,5.81507626 L2.10472136,5.81507626 C2.24274316,5.44096455 2.50789029,5.07048498 2.7221873,4.76901632 C2.80935896,4.64552313 2.89653062,4.52929425 2.95464506,4.43122613 C3.41956059,3.6757384 3.67381127,2.96746865 3.67744342,2.96020434 C3.67744342,2.95657219 3.68107557,2.95294004 3.68107557,2.94930789 C3.89537257,2.46986375 4.16051971,2.13570571 4.4910456,1.92504086 C4.7816178,1.73980108 5.11940799,1.64173296 5.58432352,1.60904359 L5.59158782,1.60904359 C5.75866684,1.59814713 5.89305649,1.5545613 5.99112461,1.47465394 L5.99112461,1.47102179 L5.99475676,1.47102179 L6.00202106,1.46375748 L6.00565322,1.46375748 C6.01291752,1.45649318 6.02381398,1.44922887 6.02744613,1.44196457 C6.04197474,1.42380381 6.0528712,1.39837874 6.0528712,1.37295367 L6.0528712,1.36932152 L6.0528712,1.36205721 C6.04923905,1.31120708 6.00565322,1.26762125 5.95480308,1.26398909 L5.92211371,1.26035694 C5.78772406,1.24582833 5.64243796,1.23856403 5.4862554,1.23856403 C5.16662597,1.23856403 4.80704287,1.2712534 4.45109192,1.33299999 C4.33849519,1.35116076 4.21863415,1.36205721 4.08061236,1.36205721 C3.97164778,1.36205721 3.86631535,1.35479291 3.76098293,1.35116076 C3.65928266,1.3475286 3.55395023,1.3402643 3.45224996,1.3402643 C3.40866413,1.3402643 3.3723426,1.3402643 3.33602108,1.34389645 C3.2270565,1.3475286 3.11809192,1.36568937 3.0054952,1.39474659 L3.0054952,1.39474659 L2.97643797,1.40201089 L2.97280582,1.40201089 C2.55874043,1.52187193 2.19915733,1.88871934 1.98122817,2.40085285 C1.98122817,2.40085285 1.98122817,2.404485 1.97759602,2.404485 C1.88316005,2.62604631 1.82867776,2.85850407 1.81778131,3.05827246 C1.79235624,3.56677382 1.76329902,3.78833513 1.68339166,3.99536782 L1.68339166,4.00263213 L1.67612736,4.00989643 C1.63980583,4.10070025 1.59622,4.18787191 1.54173771,4.30046864 L1.53084125,4.32589371 C1.45456605,4.47481196 1.35286578,4.64915529 1.25116551,4.81986646 L1.22210828,4.86708444 C1.20757967,4.88887736 1.19668322,4.91067027 1.18215461,4.93246319 C1.09498294,5.08138144 1.00781128,5.23393185 0.953328995,5.35016073 L0.953328995,5.35742504 L0.946064689,5.36468934 C0.946064689,5.3683215 0.942432537,5.37195365 0.942432537,5.37195365 L0.942432537,5.37195365 C0.938800384,5.38285011 0.935168232,5.39737872 0.935168232,5.40827517 C0.935168232,5.45549316 0.964225452,5.49544684 1.00417913,5.50997545 C1.00781128,5.50997545 1.01144344,5.5136076 1.01507559,5.5136076 L1.02233989,5.51723975 C1.0368685,5.52450406 1.05139711,5.52813621 1.06592572,5.53540051 C1.07319003,5.53903267 1.08408649,5.54266482 1.08771864,5.54266482 C1.09498294,5.54266482 1.1058794,5.53903267 1.11314371,5.53540051 L1.11677586,5.53540051 C1.16036169,5.5208719 1.22574044,5.50271114 1.32744071,5.50271114 L1.33107286,5.50271114 C1.4509339,5.50271114 1.55989847,5.53540051 1.65433444,5.59351495 C1.72697749,5.64073294 1.82504561,5.73153675 1.91948158,5.84050133 C1.94127449,5.8659264 1.97033171,5.88045501 2.00665324,5.88045501 C2.04660692,5.88771931 2.0865606,5.85866209 2.10472136,5.81507626 L2.10472136,5.81507626 L2.10472136,5.81507626 Z M2.42071863,6.98099724 L2.42071863,6.98099724 C2.42798294,6.98099724 2.43161509,6.97736508 2.43524724,6.97736508 L2.43887939,6.97736508 C2.67860146,6.91925064 2.8747377,6.85023974 2.99823089,6.55966754 C3.13262054,6.24730242 3.22342435,5.86955855 3.31059601,5.50271114 L3.33965323,5.38648226 C3.48493933,4.78717708 3.63022544,4.26414711 3.94259056,3.90456401 L3.94622271,3.90093186 C3.95711917,3.88640325 3.97164778,3.87187464 3.98254424,3.86097818 L3.98254424,3.86097818 C3.98617639,3.85734603 3.98617639,3.85734603 3.98980854,3.85371387 C3.99344069,3.85008172 3.99344069,3.85008172 3.99707285,3.84644957 C4.1387268,3.71205992 4.34575949,3.63941687 4.58184941,3.63941687 C4.69807829,3.63941687 4.81793933,3.65757764 4.94143251,3.69026701 L4.94143251,3.69026701 L4.94506467,3.69026701 C4.96685758,3.69753131 4.9886505,3.70116347 5.01044341,3.70842777 C5.12304014,3.74111714 5.25379763,3.78107082 5.39181943,3.78107082 L5.39181943,3.78107082 C5.51531262,3.78107082 5.62790935,3.7520136 5.74050608,3.68663486 L5.74050608,3.68663486 L5.74413823,3.68663486 C5.75140254,3.6830027 6.59406193,3.22171933 7.04444885,1.82697274 L7.04444885,1.82334059 C7.048081,1.81607628 7.048081,1.80517983 7.05171316,1.79791552 L7.05171316,1.79791552 L7.05897746,1.77975476 L7.05897746,1.77612261 L7.06260961,1.7688583 C7.06624177,1.75796184 7.06987392,1.75069754 7.07350607,1.73980108 L7.08077038,1.72164032 C7.08440253,1.71074386 7.08440253,1.70347955 7.08440253,1.6925831 L7.08440253,1.68895094 L7.08440253,1.68168664 C7.07713822,1.6235722 7.02992024,1.58361852 6.97543795,1.58361852 C6.95364504,1.58361852 6.93548427,1.59088282 6.91732351,1.60177928 L6.91005921,1.60541143 C6.60859054,1.80517983 6.30348973,1.82334059 5.96569954,1.82697274 C5.8385742,1.82697274 5.72597747,1.83060489 5.62064504,1.8378692 L5.61338074,1.8378692 C4.89058238,1.88871934 4.32033442,2.11028064 3.90263688,3.0401117 C3.88447612,3.08732968 3.62659328,3.79559943 3.16167776,4.55108717 C3.09993116,4.65278744 3.0127595,4.77264847 2.92558784,4.89614166 L2.90742708,4.90340597 C2.58053334,5.35742504 2.13741073,5.98215528 2.25727177,6.45796727 L2.25727177,6.46523157 C2.28996114,6.58146045 2.3008576,6.69405718 2.29359329,6.79938961 L2.29359329,6.79938961 L2.29359329,6.80302176 L2.29359329,6.80665391 C2.29359329,6.82481467 2.28996114,6.83934329 2.28632899,6.85750405 L2.28632899,6.85750405 L2.28632899,6.8611362 L2.28632899,6.87203266 C2.28632899,6.93377925 2.33717912,6.98462939 2.39892572,6.98462939 C2.40619002,6.98099724 2.41345433,6.98099724 2.42071863,6.98099724 L2.42071863,6.98099724 L2.42071863,6.98099724 Z M7.41492841,4.06801088 L7.41492841,4.06801088 L7.42219272,4.06437872 L7.42582487,4.06437872 L7.42945702,4.06437872 C7.53115729,3.99899998 7.64375402,3.93725338 7.77087936,3.87550679 L7.77087936,3.87550679 C7.77451152,3.87550679 7.77814367,3.87187464 7.78540797,3.86824248 C7.8217295,3.85008172 7.83989026,3.81012804 7.83989026,3.77017437 L7.83989026,3.76654221 L7.83989026,3.75927791 C7.83625811,3.73022069 7.8217295,3.70116347 7.79630443,3.6830027 L7.79630443,3.6830027 C7.66917909,3.59219889 7.59653604,3.49413077 7.58200743,3.47233785 C7.47304285,3.30525884 7.44398563,3.14181197 7.49483577,2.98562941 C7.53478945,2.86576838 7.62196111,2.75317165 7.75635075,2.65510353 L7.75998291,2.65510353 C7.76361506,2.65510353 7.76361506,2.65147137 7.76724721,2.65147137 L7.76724721,2.65147137 C7.79267228,2.62967846 7.80720089,2.60062124 7.80720089,2.56793187 L7.80720089,2.56429971 L7.80720089,2.55703541 C7.80356874,2.52797819 7.79267228,2.50618527 7.77087936,2.48439236 L7.74182214,2.45896729 L7.7454543,2.45533514 C7.61832896,2.31731334 7.52752514,2.16839508 7.4694107,2.00494822 L7.4694107,2.00494822 L7.45851424,1.96136239 C7.44398563,1.9141444 7.4003998,1.88145503 7.35318182,1.88145503 C7.31686029,1.88145503 7.28417092,1.89961579 7.26601016,1.92504086 C7.262378,1.92867301 7.25874585,1.93593732 7.2551137,1.94320162 C7.25148155,1.94683378 7.25148155,1.95409808 7.24784939,1.95773023 C7.24784939,1.96136239 7.24784939,1.96136239 7.24421724,1.96499454 L7.24421724,1.96862669 L7.24421724,1.97225884 C7.14978128,2.34273841 7.1861028,2.75317165 7.21879217,3.18902995 L7.21879217,3.19266211 C7.24058509,3.44691279 7.262378,3.71205992 7.2551137,3.96994276 L7.2551137,3.97357491 L7.2551137,3.98083921 L7.2551137,3.98447137 C7.2551137,4.04621796 7.30596384,4.09343594 7.36771043,4.09343594 C7.37860689,4.08253949 7.4003998,4.07527518 7.41492841,4.06801088 L7.41492841,4.06801088 L7.41492841,4.06801088 Z M1.87589575,8.96052038 C2.27906468,8.96052038 2.48609738,8.78980921 2.7984625,8.53555853 L2.81299111,8.52466208 C2.85657694,8.48834055 2.90016277,8.45201903 2.94738075,8.4156975 L2.95101291,8.4156975 C2.96917367,8.40116889 2.98370228,8.39027243 3.00186304,8.37574382 L3.0054952,8.37211167 L3.00912735,8.37211167 C3.19799928,8.22319341 3.47041072,8.02705717 3.86631535,7.83092094 C4.10966958,7.7037956 4.34939165,7.61299178 4.62180309,7.54761304 C4.857893,7.48949859 5.07945431,7.46044137 5.31917638,7.43138415 L5.33370499,7.427752 C5.4172445,7.41685554 5.50441616,7.40595909 5.59158782,7.39143048 C5.84947066,7.35510895 6.09645703,7.29699451 6.32165049,7.21708715 C7.22968863,6.90108988 7.80720089,6.26183103 7.94522269,5.41553948 C8.05418726,4.74359125 8.22853059,4.43485829 8.49367773,4.12249316 C8.51547064,4.0970681 8.54089571,4.06801088 8.57358508,4.03168935 C8.59174584,4.00989643 8.6026423,3.98447137 8.6026423,3.95541415 L8.6026423,3.95178199 L8.6026423,3.94451769 C8.595378,3.88640325 8.54816001,3.84281742 8.49367773,3.84281742 C8.47914911,3.84281742 8.46825266,3.84644957 8.45372405,3.85008172 L8.40287391,3.86824248 L8.40287391,3.86461033 C8.04329081,3.98447137 7.30959599,4.27504357 7.13888482,4.68184466 C7.13525266,4.69637327 7.12798836,4.70726973 7.12435621,4.72179834 C7.048081,4.91430242 6.94274858,5.08501359 6.80109463,5.237564 C6.35070771,5.72427245 5.9075851,5.84050133 5.47535894,5.95309806 C5.06129355,6.06206264 4.67265322,6.16376291 4.28764505,6.60688552 L4.2840129,6.61051767 C4.28038075,6.61414983 4.04792298,6.85750405 3.6483862,7.55487734 C3.42319274,7.95078197 3.04181672,8.25951494 2.56963689,8.4229618 C2.34807558,8.50286916 2.11198566,8.54282284 1.8867922,8.54282284 C1.68702381,8.54282284 1.49451973,8.51013347 1.33833717,8.44475472 L1.33833717,8.44475472 L1.33470501,8.44475472 L1.32744071,8.44475472 L1.3201764,8.43749041 C1.27659057,8.41932965 1.23300474,8.40843319 1.18941891,8.40843319 C1.14220093,8.40843319 1.0986151,8.41932965 1.05866142,8.42659396 C1.01870774,8.43749041 0.971489757,8.44838687 0.924271774,8.44838687 L0.909743164,8.44838687 L0.906111011,8.44838687 L0.895214553,8.44838687 L0.887950248,8.44838687 C0.855260875,8.45201903 0.826203655,8.46654764 0.808042892,8.4919727 C0.808042892,8.4919727 0.804410739,8.49560486 0.804410739,8.49923701 L0.804410739,8.50286916 L0.797146434,8.51013347 C0.789882129,8.52466208 0.786249976,8.54282284 0.786249976,8.55735145 C0.786249976,8.59004082 0.800778587,8.6227302 0.826203655,8.64452311 L0.829835807,8.64815526 C0.855260875,8.66994818 0.884318096,8.68810894 0.913375316,8.7062697 C1.167626,8.86971657 1.49088757,8.94962393 1.86499929,8.95325608 L1.87589575,8.95325608 L1.87589575,8.96052038 L1.87589575,8.96052038 Z M6.57953332,1.39474659 C6.51778673,1.36568937 6.44877583,1.33663214 6.37250063,1.31483923 C6.36160417,1.31120708 6.35070771,1.30757492 6.3361791,1.30394277 C6.32891479,1.32936784 6.30348973,1.38385013 6.30348973,1.38385013 C6.29622542,1.40201089 6.28896112,1.42380381 6.28896112,1.44559672 C6.28896112,1.52913623 6.35433986,1.59451498 6.43787937,1.59451498 C6.44877583,1.59451498 6.45604013,1.59451498 6.46693659,1.59088282 C6.4742009,1.59088282 6.47783305,1.58725067 6.48509736,1.58725067 C6.56863686,1.56545776 6.64854422,1.53276838 6.72845158,1.48918255 C6.68486575,1.45649318 6.63764776,1.42380381 6.57953332,1.39474659 L6.57953332,1.39474659 L6.57953332,1.39474659 Z M8.09050879,11.7427493 L8.09050879,11.7427493 C8.09414094,11.7391171 8.0977731,11.7354849 8.10140525,11.7354849 L8.10866955,11.7318528 C8.29390933,11.5974631 8.47914911,11.452177 8.65349244,11.3032588 C9.38718726,10.6821607 10.0191818,9.96299449 10.5349475,9.16392093 L10.5349475,9.16028878 C10.5385796,9.15665662 10.5422118,9.14939232 10.5458439,9.14576017 C10.5531082,9.13123156 10.5603725,9.11307079 10.5603725,9.09491003 L10.5603725,9.09127788 L10.5603725,9.08401357 C10.5567404,9.04769205 10.5349475,9.01500267 10.5022581,8.99684191 L10.4986259,8.99684191 L10.4986259,8.99684191 C10.3896614,8.94235962 10.2843289,8.86971657 10.189893,8.7752806 C9.80125265,8.39390458 9.55789843,7.72558851 9.47072677,6.7921253 L9.46346246,6.73037871 C9.43440524,6.40348498 9.37265865,5.72427245 9.04939707,5.21577109 L9.04939707,5.21577109 C8.90774312,5.00873839 8.76972132,4.79080924 8.64622813,4.56561578 L8.64259598,4.55835147 C8.62080307,4.5256621 8.58811369,4.50750134 8.54816001,4.50750134 C8.51183849,4.50750134 8.47914911,4.5256621 8.46098835,4.55108717 L8.46098835,4.55108717 C8.46098835,4.55471932 8.4573562,4.55471932 8.4573562,4.55835147 L8.45009189,4.56924793 C8.3193344,4.79807354 8.23216274,5.07048498 8.16678399,5.451861 C8.06145157,6.09838416 7.72002923,6.64320705 7.1861028,7.02821522 C7.18247065,7.02821522 7.18247065,7.03184737 7.1788385,7.03184737 L7.17520634,7.03547952 C7.16794204,7.04274383 7.16067773,7.04637598 7.15341343,7.05727244 C7.15341343,7.05727244 7.14978128,7.06090459 7.14978128,7.06453674 L7.14978128,7.0681689 L7.14251697,7.0754332 C7.13525266,7.08996181 7.13162051,7.10812258 7.13162051,7.12265119 C7.13162051,7.16623702 7.15704558,7.20619069 7.20063141,7.22435146 L7.22242433,7.23524791 C7.36407828,7.30062666 7.49120362,7.39506263 7.59653604,7.52218797 C7.98880852,7.9871035 8.10140525,8.82613074 7.90526901,9.82134054 C7.76361506,10.5405068 7.80720089,11.0816975 7.86894748,11.4085912 C7.88710825,11.5030272 7.90890116,11.593831 7.93432623,11.6773705 C7.93432623,11.6810027 7.93432623,11.6810027 7.93795838,11.6846348 C7.95248699,11.7318528 7.99607282,11.76091 8.04329081,11.76091 C8.05418726,11.7572779 8.07234803,11.7536457 8.09050879,11.7427493 L8.09050879,11.7427493 L8.09050879,11.7427493 Z M10.7746695,8.7680163 L10.7783017,8.76075199 L10.7819338,8.75348769 C11.119724,8.16144682 11.308596,7.67473838 11.3921355,7.43501631 C11.3921355,7.43138415 11.3957676,7.427752 11.3957676,7.427752 C11.3993998,7.41685554 11.3993998,7.40595909 11.3993998,7.39506263 L11.3993998,7.39143048 L11.3993998,7.38416617 C11.3957676,7.34784464 11.3739747,7.31515527 11.3412853,7.29699451 C10.8073589,7.04274383 10.2988576,6.66499996 9.83030987,6.18192367 C9.83030987,6.18192367 9.81941341,6.17102721 9.81578126,6.16739506 C9.7976205,6.1492343 9.76856328,6.14196999 9.74313821,6.14196999 C9.70681668,6.14196999 9.67412731,6.16013075 9.65596655,6.18555582 C9.65596655,6.18555582 9.65233439,6.18918798 9.65233439,6.19282013 L9.65233439,6.19645228 L9.64507009,6.20371659 C9.63780578,6.2182452 9.63417363,6.23640596 9.63417363,6.25093457 L9.63417363,6.26183103 L9.63417363,6.26546318 L9.63780578,6.27635964 C9.66323085,6.44707081 9.67775946,6.59962122 9.68865592,6.70858579 L9.69592023,6.77033239 C9.75040251,7.36963756 9.90658507,8.17234328 10.3351791,8.60093728 C10.4223507,8.68810894 10.5167867,8.75711984 10.6112227,8.80070567 L10.643912,8.81523428 C10.6584407,8.82249859 10.6729693,8.82249859 10.6874979,8.82249859 C10.7201872,8.81523428 10.7528766,8.79707352 10.7746695,8.7680163 L10.7746695,8.7680163 L10.7746695,8.7680163 Z M0.70634262,7.90719614 L0.70634262,7.90719614 L0.70634262,7.90356399 L0.70634262,7.89993183 L0.70634262,7.89266753 L0.70634262,7.89266753 C0.699078315,7.83455309 0.659124637,7.78370295 0.601010196,7.76554219 C0.597378043,7.76554219 0.59374589,7.76554219 0.590113738,7.76191004 C0.55016006,7.75101358 0.506574229,7.73648497 0.459356245,7.71469205 L0.455724093,7.71469205 C0.401241804,7.68926699 0.343127363,7.65657761 0.285012922,7.62025609 C0.259587854,7.60572748 0.230530634,7.58393456 0.19784126,7.55850949 L0.194209108,7.55487734 C0.176048345,7.54398088 0.15425543,7.53308443 0.132462514,7.53308443 C0.0997731411,7.53308443 0.067083768,7.55124519 0.0489230052,7.57667026 L0.0489230052,7.57667026 C0.0452908526,7.58030241 0.0452908526,7.58393456 0.0416587001,7.58756671 L0.0416587001,7.58756671 C0.0343943949,7.60209532 0.0307622424,7.62025609 0.0307622424,7.63841685 C0.0307622424,7.64931331 0.0307622424,7.65657761 0.0343943949,7.66384192 C0.0343943949,7.66747407 0.0343943949,7.66747407 0.0380265475,7.67110622 C0.0416587001,7.68200268 0.0452908526,7.69653129 0.0489230052,7.70742775 C0.103405294,7.85997816 0.190576955,7.99073565 0.29590938,8.07790731 L0.29590938,8.07790731 C0.379448889,8.14691821 0.46662055,8.18323974 0.539263602,8.17960758 C0.546527907,8.17960758 0.553792212,8.17597543 0.561056517,8.17597543 C0.59374589,8.16871112 0.622803111,8.15418251 0.644596026,8.12512529 C0.699078315,8.05974655 0.709974773,7.97983919 0.70634262,7.90719614 L0.70634262,7.90719614 L0.70634262,7.90719614 Z M1.88316005,6.31268116 L1.88316005,6.30541686 C1.8795279,6.26183103 1.85047068,6.2255095 1.80688485,6.21098089 L1.8032527,6.21098089 C1.74877041,6.19645228 1.68702381,6.18918798 1.61801291,6.18918798 C1.59622,6.18918798 1.57079493,6.18918798 1.54900202,6.19282013 C1.40371591,6.20371659 1.25116551,6.25819887 1.09498294,6.35263484 C0.949696842,6.44343866 0.83346796,6.48339233 0.735399841,6.48339233 C0.604642348,6.48339233 0.517470686,6.40711713 0.415770415,6.30904901 C0.372184584,6.26546318 0.3249666,6.24367026 0.270484312,6.24367026 C0.234162786,6.24367026 0.19784126,6.25456672 0.157887582,6.27272748 C0.150623277,6.27635964 0.128830362,6.2945204 0.110669599,6.30904901 C0.103405294,6.31631332 0.0997731411,6.32357762 0.092508836,6.33084193 L0.092508836,6.33084193 L0.0888766834,6.33447408 C0.0888766834,6.33447408 0.0852445309,6.33810623 0.0852445309,6.34173838 L0.0852445309,6.34537054 L0.0779802257,6.35263484 C0.0707159206,6.36716345 0.067083768,6.38532421 0.067083768,6.39985282 C0.067083768,6.45796727 0.110669599,6.50518525 0.165151887,6.5088174 L0.172416193,6.5088174 C0.226898481,6.51244955 0.28138077,6.53787462 0.335863058,6.5778283 C0.553792212,6.74127517 0.510206381,6.87929696 0.473884856,7.01731876 C0.46662055,7.03911168 0.462988398,7.06090459 0.455724093,7.08632966 L0.45209194,7.09722612 C0.441195483,7.1444441 0.433931177,7.18802993 0.430299025,7.23161576 C0.426666872,7.27156944 0.426666872,7.30789097 0.426666872,7.34058034 C0.433931177,7.47133783 0.492045618,7.51129151 0.542895754,7.54034873 C0.55016006,7.54398088 0.557424365,7.54761304 0.56468867,7.55124519 C0.571952975,7.55487734 0.582849433,7.55850949 0.59374589,7.55850949 C0.622803111,7.55850949 0.648228179,7.54034873 0.659124637,7.51492366 C0.659124637,7.51129151 0.662756789,7.50765936 0.662756789,7.50402721 C0.662756789,7.50039505 0.666388942,7.4967629 0.670021094,7.49313075 L0.670021094,7.48949859 C0.670021094,7.48586644 0.673653247,7.48586644 0.673653247,7.48223429 L0.680917552,7.47496998 C0.684549705,7.47133783 0.688181857,7.46770568 0.69181401,7.46770568 C0.695446162,7.46407353 0.699078315,7.46407353 0.702710467,7.46044137 C0.70634262,7.46044137 0.70634262,7.45680922 0.709974773,7.45680922 C0.713606925,7.45680922 0.713606925,7.45317707 0.717239078,7.45317707 L0.72087123,7.45317707 C0.724503383,7.45317707 0.724503383,7.44954492 0.728135535,7.44954492 L0.728135535,7.44954492 L0.731767688,7.44954492 L0.735399841,7.44954492 L0.742664146,7.44954492 L0.753560603,7.44954492 L0.764457061,7.44954492 L0.775353519,7.44954492 L0.786249976,7.44954492 C0.789882129,7.44954492 0.793514282,7.44954492 0.797146434,7.45317707 L0.800778587,7.45317707 L0.808042892,7.45680922 C0.811675044,7.45680922 0.815307197,7.46044137 0.822571502,7.46407353 C0.826203655,7.46407353 0.826203655,7.46770568 0.829835807,7.46770568 C0.83346796,7.47133783 0.837100112,7.47133783 0.840732265,7.47496998 L0.84799657,7.48223429 L0.855260875,7.48949859 C0.858893028,7.49313075 0.86252518,7.4967629 0.86252518,7.50039505 L0.86252518,7.50039505 C0.86252518,7.50402721 0.866157333,7.50402721 0.866157333,7.50765936 L0.866157333,7.51129151 C0.866157333,7.51492366 0.869789486,7.51492366 0.869789486,7.51855582 L0.873421638,7.52218797 C0.873421638,7.52582012 0.877053791,7.52582012 0.877053791,7.52945227 C0.887950248,7.56214165 0.906111011,7.58393456 0.935168232,7.60209532 C0.967857605,7.62025609 1.00781128,7.63115254 1.05866142,7.63115254 C1.08771864,7.63115254 1.12040801,7.62752039 1.15309739,7.62025609 C1.18941891,7.60935963 1.20757967,7.59119887 1.20757967,7.58030241 C1.21121183,7.5657738 1.20031537,7.54034873 1.18215461,7.51855582 L1.17852245,7.51492366 C1.17125815,7.50765936 1.167626,7.50039505 1.16036169,7.48949859 C1.13856878,7.45680922 1.11677586,7.43138415 1.08771864,7.38779832 L1.07682218,7.36963756 C1.0368685,7.31152312 1.00417913,7.25340868 0.978754063,7.19166208 L0.967857605,7.16623702 C0.895214553,6.98462939 0.898846706,6.81028606 0.978754063,6.68679288 C1.04050066,6.59235691 1.13856878,6.54150677 1.25842981,6.53787462 L1.26206196,6.53787462 C1.40734807,6.53787462 1.46183035,6.66136781 1.48725542,6.74490732 L1.48725542,6.74490732 C1.49815188,6.784861 1.53447341,6.81028606 1.57805924,6.81028606 C1.59622,6.81028606 1.61074861,6.80665391 1.62164507,6.79938961 C1.62527722,6.79575745 1.62890937,6.79575745 1.63254152,6.7921253 C1.63617368,6.78849315 1.63980583,6.78849315 1.64343798,6.784861 C1.72334534,6.73037871 1.74513825,6.7158501 1.75240256,6.60688552 C1.75240256,6.54513893 1.77782763,6.46159942 1.84320637,6.40711713 C1.84683853,6.40348498 1.85047068,6.40348498 1.85410283,6.39985282 C1.8795279,6.37805991 1.89405651,6.34900269 1.89405651,6.31631332 C1.88316005,6.31631332 1.88316005,6.31631332 1.88316005,6.31268116 L1.88316005,6.31268116 L1.88316005,6.31268116 Z M6.98633441,3.19992641 C6.98270226,3.13454767 6.97543795,3.06916892 6.9718058,3.00379017 L6.9718058,2.99652587 C6.96454149,2.93841143 6.91732351,2.8948256 6.86284122,2.8948256 C6.8265197,2.8948256 6.79383032,2.91298636 6.77566956,2.93841143 C6.77566956,2.93841143 6.77203741,2.94204358 6.77203741,2.94567573 L6.77203741,2.94930789 L6.7647731,2.95657219 C6.40519,3.51229153 6.02744613,3.77380652 5.90032079,3.85371387 C5.86763142,4.00263213 5.74050608,4.42396183 5.2719584,4.7326948 C5.26106194,4.7399591 5.25016548,4.74722341 5.23926902,4.75448771 C5.23200472,4.75811986 5.22474041,4.76175202 5.21747611,4.76901632 C4.73439982,5.06322068 4.22589846,5.00510624 4.22589846,5.00510624 L4.22589846,5.00510624 C3.74645432,4.93609534 3.61206467,5.24482831 3.56121454,5.43733239 L3.53215732,5.55356128 C3.4413535,5.93130514 3.35054969,6.31994547 3.20526359,6.65047135 C3.02365596,7.07180105 2.70402653,7.14807625 2.42435078,7.213455 C2.26090392,7.25340868 2.10835351,7.2897302 1.98486032,7.38779832 C1.97396387,7.39869478 1.96306741,7.40959124 1.9485388,7.41685554 C1.85773498,7.48949859 1.77056332,7.55487734 1.68702381,7.60935963 L1.66159875,7.62752039 C1.49815188,7.73285282 1.34560147,7.80186372 1.21121183,7.83092094 L1.19305106,7.83455309 C1.18941891,7.83455309 1.18578676,7.83455309 1.18215461,7.83818524 L1.1748903,7.83818524 C1.12404017,7.8490817 1.09135079,7.89629968 1.09135079,7.94714982 C1.09135079,7.96894273 1.0986151,7.99073565 1.10951155,8.00889641 L1.10951155,8.00889641 C1.11314371,8.01252856 1.11677586,8.01616072 1.12040801,8.02342502 C1.12040801,8.02342502 1.12040801,8.02705717 1.12404017,8.02705717 C1.19305106,8.11422884 1.28748703,8.18323974 1.40734807,8.23408987 L1.41461237,8.23772202 C1.54900202,8.29220431 1.70881673,8.32126153 1.8795279,8.32126153 C2.39166141,8.32126153 3.09993116,8.04885009 3.44498566,7.44591276 C3.84815459,6.74490732 4.08787666,6.48339233 4.11330173,6.45796727 C4.54189573,5.96399452 4.98501834,5.84776563 5.41361235,5.7351689 C5.83130989,5.62620433 6.22358237,5.52450406 6.63038346,5.08501359 C6.75387665,4.9542561 6.84468046,4.80897 6.90642705,4.64189098 C6.91005921,4.62736237 6.91732351,4.61283376 6.92095566,4.6019373 C7.06624177,4.17697545 7.02628809,3.67937055 6.98633441,3.19992641 L6.98633441,3.19992641 L6.98633441,3.19992641 Z M0.986018368,4.8779809 C0.986018368,4.87434875 0.986018368,4.86708444 0.982386215,4.86345229 L0.982386215,4.85982014 C0.956961147,4.80897 0.927903927,4.7399591 0.906111011,4.65278744 L0.906111011,4.64552313 C0.895214553,4.61646591 0.866157333,4.59104085 0.83346796,4.59104085 C0.808042892,4.59104085 0.786249976,4.6019373 0.771721366,4.62009807 L0.771721366,4.62009807 C0.771721366,4.62373022 0.768089214,4.62736237 0.768089214,4.62736237 L0.768089214,4.62736237 C0.768089214,4.62736237 0.768089214,4.63099452 0.764457061,4.63099452 C0.760824908,4.63462668 0.760824908,4.64189098 0.760824908,4.64552313 C0.724503383,4.75448771 0.688181857,4.85255583 0.648228179,4.93972749 C0.622803111,4.99420978 0.597378043,5.04142776 0.571952975,5.08864575 L0.571952975,5.08864575 L0.571952975,5.08864575 C0.571952975,5.08864575 0.571952975,5.0922779 0.568320822,5.0922779 L0.568320822,5.0922779 C0.568320822,5.0922779 0.568320822,5.0922779 0.568320822,5.09591005 L0.568320822,5.09591005 C0.568320822,5.09954221 0.56468867,5.10317436 0.56468867,5.11043866 C0.56468867,5.11770297 0.56468867,5.12133512 0.568320822,5.12859943 C0.568320822,5.12859943 0.568320822,5.13223158 0.571952975,5.13223158 C0.57921728,5.13949588 0.582849433,5.14676019 0.590113738,5.15765665 L0.590113738,5.15765665 C0.615538806,5.20124248 0.659124637,5.24482831 0.709974773,5.24482831 C0.764457061,5.24482831 0.81893935,5.19761032 0.844364418,5.15039234 C0.844364418,5.14676019 0.84799657,5.14676019 0.84799657,5.14312804 C0.887950248,5.06685283 0.935168232,4.98331332 0.982386215,4.90340597 C0.982386215,4.89977381 0.986018368,4.89614166 0.986018368,4.89614166 L0.986018368,4.89614166 C0.98965052,4.88887736 0.98965052,4.8852452 0.98965052,4.8779809 C0.986018368,4.88161305 0.986018368,4.88161305 0.986018368,4.8779809 L0.986018368,4.8779809 L0.986018368,4.8779809 L0.986018368,4.8779809 Z M0.517470686,5.35016073 C0.517470686,5.34652858 0.513838534,5.34652858 0.513838534,5.34289643 C0.513838534,5.34289643 0.513838534,5.33926427 0.510206381,5.33926427 C0.499309924,5.32473566 0.481149161,5.31383921 0.462988398,5.31383921 C0.444827635,5.31383921 0.426666872,5.32110351 0.415770415,5.33563212 L0.415770415,5.33563212 C0.415770415,5.33563212 0.415770415,5.33926427 0.412138262,5.33926427 C0.412138262,5.33926427 0.412138262,5.33926427 0.412138262,5.34289643 L0.412138262,5.34289643 C0.412138262,5.34289643 0.412138262,5.34652858 0.408506109,5.34652858 L0.408506109,5.34652858 C0.317702295,5.52813621 0.299541532,5.68068662 0.292277227,5.80054765 L0.292277227,5.80781196 L0.292277227,5.80781196 C0.292277227,5.84050133 0.317702295,5.8659264 0.350391668,5.8659264 C0.361288126,5.8659264 0.372184584,5.86229424 0.383081041,5.85502994 L0.386713194,5.85139779 C0.401241804,5.84050133 0.415770415,5.82960487 0.426666872,5.81870841 L0.430299025,5.81507626 C0.448459788,5.80054765 0.488413466,5.76785828 0.531999297,5.72064029 C0.531999297,5.72064029 0.531999297,5.72064029 0.535631449,5.71700814 L0.535631449,5.71700814 L0.539263602,5.71337599 L0.539263602,5.71337599 C0.633699569,5.62620433 0.59374589,5.49181468 0.517470686,5.35016073 L0.517470686,5.35016073 L0.517470686,5.35016073 Z" id="Shape" fill="#556882"></path>
                        </g>
                    </g>
                </g>
                
                    
                        <g id="Group" mask="url(#mask-2)">
                            <g transform="translate(15.000000, 42.000000)">
                                <text id="No-Issues-Found" font-family="OpenSans-Semibold, Open Sans, sans-serif" font-size="12" font-weight="500" line-spacing="18">
                                    <tspan x="16" y="12" fill="#17C55D">No Issues Found</tspan>
                                </text>
                                <g id="Group-13-Copy" stroke-width="1" fill-rule="evenodd" transform="translate(0.000000, 2.000000)">
                                    <circle id="Oval-226" fill="#17C55D" cx="5.5" cy="5.5" r="5.5"></circle>
                                    <path d="M8.07606655,3.21825739 C7.9753767,3.11772373 7.81022961,3.11772373 7.70947413,3.21825739 L4.45792743,6.46284221 C4.35717195,6.56337587 4.19209049,6.56337587 4.09133501,6.46284221 L3.29047664,5.66381244 C3.18972116,5.56327877 3.0246397,5.56327877 2.92388423,5.66381244 L2.43270947,6.15416784 C2.33195399,6.2547015 2.33195399,6.41941952 2.43270947,6.51995319 L4.09133501,8.17459975 C4.19209049,8.27513342 4.35717195,8.27513342 4.45792743,8.17459975 L8.5672413,4.07413616 C8.66806242,3.97353701 8.66806242,3.80888448 8.5672413,3.70828532 L8.07606655,3.21825739 L8.07606655,3.21825739 Z" id="Shape-Copy" fill="#FFFFFF"></path>
                                </g>
                            </g>
                        </g>
                    
                    <g id="Group-2" mask="url(#mask-2)">
                        <g transform="translate(15.000000, 75.000000)">
                            <text id="LICENSE-SCAN" fill="none" font-family="OpenSans-Bold, Open Sans, sans-serif" font-size="12" font-weight="bold" line-spacing="18" letter-spacing="0.5" fill-opacity="0.4">
                                <tspan x="0" y="13" fill="#556882">LICENSE SCAN</tspan>
                            </text>
                            
                                <rect id="Rectangle-scanresults-1" fill="rgb(74,213, 70)" fill-rule="evenodd" x="0" y="28" width="140" height="5" rx="2.5"></rect>
                                <text id="Rectangle-scanresults-label-MIT" fill="none" font-family="OpenSans-Semibold, Open Sans, sans-serif" font-size="12" font-weight="500" line-spacing="18">
                                    <tspan x="150" y="34" fill="rgb(74,213, 70)">MIT - 63%</tspan>
                                </text>
                            
                                <rect id="Rectangle-scanresults-2" fill="rgb(150, 150, 170)" fill-rule="evenodd" x="0" y="48" width="84.44444444444444" height="5" rx="2.5"></rect>
                                <text id="Rectangle-scanresults-label-UNRECOGNIZED" fill="none" font-family="OpenSans-Semibold, Open Sans, sans-serif" font-size="12" font-weight="500" line-spacing="18">
                                    <tspan x="94.44444444444444" y="54" fill="rgb(150, 150, 170)">UNRECOGNIZED - 38%</tspan>
                                </text>
                            
                            
                        </g>
                    </g>
                    <g id="Group-3" mask="url(#mask-2)" font-size="12" line-spacing="18">
                        <g transform="translate(15.000000, 149.000000)">
                            <text id="IMPACT-STATS" font-family="OpenSans-Bold, Open Sans, sans-serif" font-weight="bold" letter-spacing="0.5" fill-opacity="0.4">
                                <tspan x="0" y="13" fill="#556882">DEEP IMPACT STATS</tspan>
                            </text>
                            <g id="impact-stats-deps" stroke-width="1" fill-rule="evenodd" transform="translate(0.000000, 23.000000)">
                                <text id="+10" font-family="OpenSans-Semibold, Open Sans, sans-serif" font-weight="500" fill="#556882">
                                    <tspan x="0" y="13">+ 3</tspan>
                                </text>
                                <text id="Deep-Dependencies" font-family="OpenSans, Open Sans, sans-serif" font-weight="normal" fill="#556882">
                                    <tspan x="22" y="13">Deep Dependencies</tspan>
                                </text>
                            </g>
                            <g id="impact-stats-obligations" stroke-width="1" fill-rule="evenodd" transform="translate(0.000000, 51.000000)">
                                <text id="+10" font-family="OpenSans-Semibold, Open Sans, sans-serif" font-weight="500" fill="#556882">
                                    <tspan x="0" y="13">+ 2</tspan>
                                </text>
                                <text id="Deep-Dependencies" font-family="OpenSans, Open Sans, sans-serif" font-weight="normal" fill="#556882">
                                    <tspan x="22" y="13">Obligations from 2 Licenses</tspan>
                                </text>
                            </g>
                            
                        </g>
                    </g>
                
                <g id="Group-6" mask="url(#mask-2)">
                    <g transform="translate(0.000000, 230.000000)">
                        <rect id="Rectangle-143" fill-opacity="0.05" fill="#556882" fill-rule="evenodd" x="0" y="1" width="275" height="37"></rect>
                        <rect id="Rectangle-144" fill-opacity="0.1" fill="#556882" fill-rule="evenodd" x="0" y="0" width="275" height="1"></rect>
                        <text id="View-More-Details-on" fill="none" font-family="OpenSans-Bold, Open Sans, sans-serif" font-size="12" font-weight="bold" fill-opacity="0.6">
                            <tspan x="15" y="23" fill="#556882">View More Details on FOSSA</tspan>
                        </text>
                        <g id="Page-1" stroke-width="1" fill="none" fill-rule="evenodd" transform="translate(246.000000, 12.000000)" fill-opacity="0.6">
                            <path d="M11.8417681,2.15823188 C10.5482899,0.864753623 8.82933333,0.152173913 7,0.152173913 C5.17066667,0.152173913 3.45171014,0.864753623 2.15823188,2.15823188 C0.864753623,3.45171014 0.152173913,5.17066667 0.152173913,7 C0.152173913,8.82933333 0.864753623,10.5491014 2.15823188,11.8417681 C3.45171014,13.1352464 5.17147826,13.8478261 7,13.8478261 C8.82933333,13.8478261 10.5491014,13.1352464 11.8417681,11.8417681 C13.1352464,10.5491014 13.8478261,8.82933333 13.8478261,7 C13.8478261,5.17066667 13.1352464,3.45171014 11.8417681,2.15823188 L11.8417681,2.15823188 Z M10.7662029,10.7662029 C9.76043478,11.7721739 8.42272464,12.326087 7,12.326087 C5.57727536,12.326087 4.24017391,11.7721739 3.2337971,10.7662029 C2.22782609,9.76043478 1.67391304,8.42272464 1.67391304,7 C1.67391304,5.57727536 2.22782609,4.24017391 3.2337971,3.2337971 C4.24017391,2.22782609 5.57727536,1.67391304 7,1.67391304 C8.42272464,1.67391304 9.75982609,2.22782609 10.7662029,3.2337971 C11.7721739,4.24017391 12.326087,5.57727536 12.326087,7 C12.326087,8.42272464 11.7721739,9.76043478 10.7662029,10.7662029 L10.7662029,10.7662029 Z" id="Fill-1" fill="#556882"></path>
                            <polyline id="Fill-2" fill="#556882" points="6.24623188 4.09368116 5.16985507 5.16985507 7 7 5.16985507 8.83014493 6.24623188 9.90550725 9.15255072 7"></polyline>
                        </g>
                    </g>
                </g>
            </g>
        </g>
    </g>
</svg>
